<svg xmlns="http://www.w3.org/2000/svg" viewBox="0 0 512 512" width="512" height="512">
  <rect width="512" height="512" fill="rgb(10,10,10)"/>
  <polyline points="174.0,174.0 174.7,173.1 175.4,171.9 176.3,170.6 177.1,169.2 178.1,167.7 179.1,166.0 180.2,164.2 181.3,162.3 182.5,160.4 183.7,158.4 185.0,156.4 186.3,154.3 187.7,152.2 189.1,150.2 190.5,148.1 192.0,146.1 193.6,144.1 195.1,142.2 196.7,140.4 198.3,138.7 200.0,137.1 201.6,135.6 203.3,134.2 205.0,133.0 206.7,131.9 208.5,130.9 210.4,129.9 212.3,128.9 214.3,128.0 216.3,127.2 218.4,126.4 220.5,125.6 222.7,124.9 224.8,124.3 227.0,123.7 229.3,123.1 231.5,122.6 233.7,122.2 236.0,121.7 238.3,121.4 240.5,121.0 242.8,120.8 245.0,120.5 247.3,120.3 249.5,120.2 251.7,120.1 253.9,120.0 256.0,120.0 258.1,120.0 260.3,120.1 262.5,120.2 264.7,120.3 267.0,120.5 269.2,120.8 271.5,121.0 273.7,121.4 276.0,121.7 278.3,122.2 280.5,122.6 282.8,123.1 285.0,123.7 287.2,124.3 289.3,124.9 291.5,125.6 293.6,126.4 295.7,127.2 297.7,128.0 299.7,128.9 301.6,129.9 303.5,130.9 305.3,131.9 307.0,133.0 308.7,134.2 310.4,135.4 312.1,136.8 313.8,138.2 315.5,139.7 317.1,141.3 318.7,142.9 320.3,144.6 321.9,146.3 323.4,148.1 324.9,149.9 326.3,151.8 327.7,153.6 329.0,155.5 330.3,157.4 331.4,159.3 332.6,161.2 333.6,163.1 334.6,165.0 335.4,166.8 336.2,168.7 336.9,170.5 337.5,172.3 338.0,174.0 338.4,175.7 338.7,177.5 338.9,179.2 339.0,181.0 339.1,182.8 339.1,184.6 339.0,186.4 338.8,188.2 338.5,190.0 338.2,191.8 337.8,193.6 337.4,195.4 336.9,197.2 336.3,199.0 335.7,200.7 335.0,202.4 334.3,204.1 333.5,205.8 332.7,207.4 331.8,209.0 330.9,210.6 330.0,212.1 329.0,213.6 328.0,215.0 326.9,216.4 325.7,217.7 324.5,219.0 323.1,220.2 321.7,221.4 320.1,222.5 318.6,223.6 316.9,224.7 315.2,225.8 313.5,226.8 311.7,227.8 309.9,228.8 308.1,229.8 306.3,230.8 304.5,231.8 302.6,232.7 300.8,233.7 299.0,234.7 297.2,235.7 295.5,236.7 293.8,237.8 292.1,238.8 290.5,239.9 289.0,241.0 287.5,242.1 285.9,243.2 284.4,244.3 282.8,245.4 281.2,246.5 279.6,247.6 277.9,248.7 276.3,249.8 274.7,250.9 273.2,252.0 271.6,253.1 270.1,254.3 268.6,255.4 267.1,256.5 265.7,257.7 264.3,258.9 263.0,260.0 261.8,261.3 260.6,262.5 259.5,263.7 258.5,265.0 257.6,266.3 256.7,267.6 256.0,269.0 255.4,270.4 254.8,271.9 254.4,273.4 254.1,274.9 253.8,276.5 253.7,278.1 253.6,279.8 253.6,281.5 253.6,283.2 253.7,284.9 253.8,286.6 253.9,288.3 254.1,290.0 254.3,291.7 254.5,293.4 254.8,295.1 255.0,296.7 255.2,298.3 255.4,299.9 255.6,301.4 255.8,302.9 255.9,304.3 256.0,305.7 256.0,307.0 256.0,308.3 256.0,309.5 256.0,310.8 256.0,312.0 256.0,313.2 256.0,314.3 256.0,315.5 256.0,316.6 256.0,317.7 256.0,318.8 256.0,319.9 256.0,320.9 256.0,321.9 256.0,322.8 256.0,323.7 256.0,324.6 256.0,325.4 256.0,326.2 256.0,327.0 256.0,327.7 256.0,328.3 256.0,328.9 256.0,329.5 256.0,330.0" fill="none" stroke="rgb(34,197,94)" stroke-width="60" stroke-linecap="round" stroke-linejoin="round"/>
  <circle cx="256" cy="384" r="31" fill="rgb(34,197,94)"/>
</svg>
